<?xml version="1.0" standalone="no"?>
<!DOCTYPE svg PUBLIC "-//W3C//DTD SVG 20010904//EN"
 "http://www.w3.org/TR/2001/REC-SVG-20010904/DTD/svg10.dtd">
<svg version="1.0" xmlns="http://www.w3.org/2000/svg"
 width="686.000000pt" height="686.000000pt" viewBox="0 0 686.000000 686.000000"
 preserveAspectRatio="xMidYMid meet">
<g transform="translate(0.000000,686.000000) scale(0.100000,-0.100000)"
fill="#000000" stroke="none">
<path d="M1090 6173 c-37 -11 -63 -30 -78 -58 -34 -63 -18 -100 94 -215 50
-52 125 -131 165 -175 41 -43 83 -89 94 -100 32 -34 193 -220 289 -335 94
-113 94 -113 146 -180 19 -25 37 -47 40 -50 41 -39 410 -552 410 -570 0 -4 3
-10 8 -12 6 -3 119 -168 132 -193 3 -5 37 -56 75 -113 39 -57 75 -111 80 -120
6 -8 98 -149 206 -311 107 -163 198 -304 202 -313 3 -10 11 -18 17 -18 5 0 10
-4 10 -9 0 -4 38 -69 84 -142 46 -74 98 -161 116 -194 18 -33 36 -64 40 -70
12 -15 185 -362 215 -430 41 -93 99 -250 121 -330 40 -144 47 -186 47 -320 1
-167 -26 -295 -82 -378 -104 -157 -245 -199 -431 -128 -122 46 -262 196 -274
295 -4 28 -11 65 -16 81 -5 17 -11 41 -14 55 -2 14 -10 45 -17 70 -7 25 -13
50 -15 56 -3 16 -43 134 -54 159 -5 11 -18 47 -30 80 -12 33 -25 64 -29 70 -4
5 -18 35 -30 65 -63 161 -218 214 -337 117 -62 -52 -87 -148 -58 -227 14 -40
21 -71 29 -126 28 -201 59 -304 144 -475 57 -116 57 -116 55 -199 -3 -84 -14
-148 -40 -228 -57 -175 -133 -195 -288 -78 -25 20 -48 36 -50 36 -26 0 -321
301 -392 400 -69 96 -169 259 -212 346 -16 33 -52 103 -80 157 -28 54 -51 100
-51 102 -1 3 -15 35 -32 72 -33 73 -89 232 -89 255 0 21 -60 88 -89 100 -89
33 -178 2 -218 -77 -20 -38 -23 -75 -11 -128 5 -23 12 -53 14 -67 2 -14 8 -34
13 -45 5 -11 30 -74 56 -140 41 -103 175 -388 219 -465 65 -113 161 -276 166
-280 3 -3 27 -35 53 -73 226 -319 577 -603 809 -653 226 -49 352 -9 472 150
53 69 114 207 119 264 1 14 6 18 17 13 8 -4 40 -19 70 -32 58 -27 90 -41 103
-44 4 -2 9 -4 12 -5 3 -1 8 -3 13 -4 52 -13 87 -21 141 -32 53 -11 189 -10
251 2 246 46 408 187 494 429 29 83 43 135 50 193 3 23 9 61 12 84 13 93 3
292 -21 448 -14 91 -64 270 -100 361 -81 203 -264 531 -441 793 -41 59 -74
112 -74 116 0 5 -4 10 -8 12 -4 2 -30 35 -57 73 -27 39 -53 72 -57 73 -5 2 -8
8 -8 13 0 10 -91 132 -102 137 -5 2 -8 7 -8 12 0 4 -36 56 -80 116 -44 59 -80
110 -80 114 0 3 -8 15 -18 26 -10 10 -49 64 -87 119 -39 55 -83 118 -98 140
-16 22 -54 78 -85 125 -31 47 -59 87 -62 90 -3 3 -29 41 -59 85 -82 121 -160
233 -209 300 -24 33 -51 71 -60 84 -20 27 -157 211 -169 226 -10 12 -54 68
-158 200 -43 55 -85 107 -92 115 -7 8 -29 35 -49 60 -90 111 -142 168 -330
355 -202 201 -268 264 -292 279 -21 13 -66 23 -82 19z"/>
<path d="M4180 5045 c-117 -25 -213 -67 -301 -135 -53 -42 -158 -148 -159
-162 0 -4 -6 -13 -12 -20 -41 -43 -127 -236 -144 -321 -2 -10 -5 -26 -8 -35
-39 -127 -40 -388 -3 -547 5 -18 41 -123 71 -200 58 -154 238 -374 401 -491
37 -26 67 -55 69 -67 21 -102 52 -227 76 -299 83 -249 241 -459 441 -590 45
-29 84 -53 88 -54 3 0 26 -10 51 -21 25 -12 59 -25 75 -29 17 -4 35 -9 40 -13
6 -3 15 -6 20 -7 6 -1 38 -7 73 -13 61 -12 180 -15 232 -7 25 4 68 12 105 20
125 28 317 133 415 228 96 93 169 234 209 405 39 167 45 229 45 443 0 290 -18
407 -98 655 -22 70 -132 301 -153 323 -7 7 -13 17 -13 22 0 14 -128 198 -193
278 -94 115 -236 254 -377 365 -71 57 -258 163 -349 199 -42 16 -154 49 -186
54 -16 3 -55 10 -85 16 -77 15 -264 17 -330 3z m253 -309 c119 -16 282 -62
315 -88 6 -6 12 -8 12 -4 0 3 23 -8 50 -24 28 -17 55 -30 60 -30 6 0 10 -4 10
-10 0 -5 6 -10 14 -10 7 0 24 -10 38 -22 13 -13 41 -36 61 -51 43 -33 251
-237 241 -237 -4 0 2 -8 12 -17 24 -22 144 -187 144 -198 0 -5 6 -16 14 -24
13 -16 59 -103 90 -171 20 -45 94 -267 100 -300 2 -14 5 -25 6 -25 1 0 3 -9 5
-20 2 -11 9 -49 16 -85 14 -72 17 -240 6 -340 -4 -36 -10 -84 -12 -106 -2 -23
-7 -55 -10 -70 -3 -16 -8 -45 -11 -64 -12 -70 -70 -211 -106 -256 -79 -100
-167 -164 -258 -187 -49 -13 -205 -16 -250 -4 -63 15 -200 76 -200 89 0 4 -6
8 -14 8 -26 0 -161 144 -199 212 -38 66 -86 177 -92 210 -4 19 -5 19 70 4 11
-2 52 -9 90 -16 108 -21 362 -18 495 4 31 6 118 18 145 20 52 6 102 18 117 30
30 22 47 75 36 114 -19 69 -50 79 -233 75 -201 -4 -424 -4 -465 1 -31 3 -147
19 -160 21 -56 9 -143 42 -151 56 -15 29 -2 347 17 399 3 8 8 25 10 38 2 12
18 49 35 82 31 62 38 116 21 160 -12 32 -60 80 -92 92 -32 12 -90 16 -96 6 -3
-5 -13 -8 -24 -8 -21 0 -90 -66 -90 -86 0 -8 -3 -14 -8 -14 -4 0 -13 -12 -19
-27 -20 -45 -42 -113 -38 -113 3 0 0 -12 -6 -26 -5 -15 -12 -43 -15 -63 -3
-20 -7 -42 -9 -49 -4 -11 -9 -42 -20 -127 -2 -16 -4 -32 -4 -34 -2 -10 -40 31
-85 94 -111 152 -155 290 -158 495 0 59 12 163 28 226 8 32 16 67 19 77 23 97
81 201 149 270 89 91 153 120 276 126 30 2 57 4 59 7 2 2 7 2 10 0 3 -2 28 -7
54 -10z"/>
</g>
</svg>
